<?xml version="1.0" standalone="no"?>
<!DOCTYPE svg PUBLIC "-//W3C//DTD SVG 20010904//EN"
 "http://www.w3.org/TR/2001/REC-SVG-20010904/DTD/svg10.dtd">
<svg version="1.0" xmlns="http://www.w3.org/2000/svg"
 width="3200.000000pt" height="3200.000000pt" viewBox="0 0 3200.000000 3200.000000"
 preserveAspectRatio="xMidYMid meet">
<metadata>
Created by potrace 1.14, written by Peter Selinger 2001-2017
</metadata>
<g transform="translate(0.000000,3200.000000) scale(0.100000,-0.100000)"
fill="#000000" stroke="none">
<path d="M0 16000 l0 -16000 16000 0 16000 0 0 16000 0 16000 -16000 0 -16000
0 0 -16000z m15590 9170 c80 -6 213 -14 296 -20 83 -5 477 -10 877 -11 697 -1
726 -2 746 -20 28 -26 84 -129 125 -229 19 -47 46 -106 60 -132 15 -26 44 -86
65 -135 35 -82 76 -154 190 -330 52 -82 55 -83 155 -57 33 9 93 16 132 17 89
0 140 -19 323 -122 107 -60 141 -84 165 -119 18 -25 53 -56 86 -75 30 -17 97
-59 148 -94 51 -35 134 -84 185 -109 51 -26 137 -78 192 -116 145 -100 307
-215 327 -233 26 -21 127 -89 167 -111 38 -21 53 -30 96 -59 39 -26 207 -142
220 -153 14 -10 87 -60 165 -113 36 -23 99 -60 141 -80 l77 -38 26 -69 c38
-100 37 -171 -5 -264 -49 -110 -96 -165 -236 -282 -70 -58 -168 -140 -218
-182 -151 -127 -481 -371 -595 -440 -35 -21 -91 -65 -125 -97 -60 -57 -230
-185 -322 -242 -159 -98 -443 -316 -544 -417 -52 -52 -74 -67 -105 -72 -21 -3
-174 -8 -339 -11 -165 -2 -303 -4 -306 -5 -11 0 -103 -169 -130 -235 -13 -33
-34 -77 -47 -99 -40 -65 -84 -167 -90 -208 -3 -28 -14 -46 -36 -63 -48 -38
-58 -50 -111 -138 -33 -52 -63 -89 -85 -102 -46 -27 -204 -189 -236 -243 l-26
-42 7 -186 7 -185 38 -24 c21 -13 89 -61 151 -106 63 -45 135 -98 161 -116 26
-19 107 -65 180 -102 73 -37 153 -81 178 -98 25 -17 77 -47 115 -68 39 -20
102 -59 141 -85 39 -27 102 -67 140 -90 38 -24 85 -57 105 -75 20 -18 47 -36
60 -40 13 -4 75 -39 138 -77 62 -38 160 -91 217 -119 104 -49 165 -95 206
-152 19 -26 23 -54 34 -231 7 -110 17 -213 23 -228 l11 -28 394 0 394 0 62
-67 c34 -38 71 -85 81 -105 43 -84 74 -285 129 -833 46 -462 63 -613 91 -810
39 -269 45 -314 63 -465 27 -228 49 -461 44 -465 -2 -2 -220 -7 -484 -10 -447
-5 -479 -7 -476 -23 5 -26 38 -80 98 -158 63 -82 146 -233 174 -314 14 -43 19
-92 22 -225 l3 -171 -54 -69 c-30 -39 -66 -83 -80 -98 -53 -58 -59 -59 -426
-73 -187 -7 -410 -13 -495 -14 -85 0 -165 -3 -177 -6 -18 -5 -28 -23 -47 -83
-13 -42 -45 -141 -70 -221 -26 -79 -51 -171 -56 -203 -5 -36 -18 -69 -33 -86
-12 -15 -29 -54 -36 -87 -68 -310 -86 -350 -202 -449 -49 -42 -111 -91 -139
-110 -79 -53 -363 -193 -446 -221 -41 -13 -91 -34 -112 -47 -50 -32 -85 -43
-227 -68 -91 -16 -139 -20 -200 -15 -115 10 -129 9 -134 -5 -2 -7 -14 -23 -27
-36 -23 -23 -24 -23 -309 -23 l-285 0 -10 24 c-12 32 -21 34 -195 45 -83 6
-165 14 -183 20 -18 5 -55 7 -83 4 -35 -4 -54 -2 -67 9 -9 8 -80 43 -157 78
-446 203 -639 307 -690 374 -46 61 -139 286 -189 456 -40 140 -93 326 -140
490 -24 86 -65 212 -91 280 -26 69 -71 222 -100 340 -30 118 -70 265 -89 327
-105 334 -312 1094 -367 1343 -36 168 -62 245 -95 280 -14 16 -48 104 -94 245
-40 121 -76 227 -81 237 -8 14 -22 10 -116 -39 -60 -31 -136 -73 -169 -95 -34
-21 -92 -47 -130 -58 -38 -11 -119 -45 -181 -75 -61 -30 -114 -55 -117 -55 -3
0 -75 -38 -159 -84 -84 -46 -184 -100 -222 -121 -41 -21 -86 -55 -108 -81 -21
-24 -45 -44 -53 -44 -42 0 -476 -210 -571 -277 -34 -24 -67 -43 -74 -43 -9 0
-10 19 -6 74 9 101 -7 215 -49 354 -30 100 -57 157 -152 330 -7 13 -20 21 -87
53 -20 10 -43 38 -70 87 -31 56 -58 87 -118 137 -42 35 -78 68 -80 72 -1 4 14
16 33 27 74 42 359 231 445 295 236 176 298 221 401 291 61 41 164 115 228
164 64 49 163 116 219 150 56 34 183 124 282 201 163 127 341 253 404 285 26
13 50 11 166 -19 163 -41 218 -77 335 -220 73 -91 100 -112 100 -79 0 6 20 62
45 124 35 84 47 128 49 176 2 48 10 78 32 118 45 84 91 122 191 160 148 55
203 82 223 107 10 13 44 32 74 43 31 10 91 39 134 63 180 103 326 189 352 207
36 26 108 57 195 84 39 13 117 52 175 88 58 35 130 80 160 98 293 178 292 177
309 262 48 236 28 294 -165 475 -127 119 -178 188 -251 338 -27 55 -69 138
-95 185 -25 47 -49 96 -53 110 -8 24 -108 234 -142 294 -11 21 -13 34 -6 46 8
12 6 16 -11 19 -11 2 -230 5 -486 6 l-464 3 -21 27 c-11 15 -48 55 -82 89 -35
33 -68 75 -73 92 -7 19 -23 37 -43 46 -89 43 -188 134 -401 367 -77 83 -187
198 -245 254 -59 57 -127 125 -152 152 -125 134 -538 535 -565 548 -44 23
-114 103 -149 172 -26 52 -30 73 -37 184 -8 150 -5 174 31 226 21 32 51 53
152 105 69 36 158 85 197 109 40 24 113 61 163 83 51 21 126 61 168 88 42 27
112 66 156 86 44 21 121 63 170 95 109 68 335 183 460 232 116 46 329 167 373
211 68 71 448 249 648 304 38 11 115 25 171 33 l101 13 31 70 c31 73 125 307
191 476 75 194 115 255 172 264 103 17 244 19 438 6z m-5389 -9046 c18 -22 60
-42 115 -54 61 -14 68 -20 98 -86 l25 -54 54 0 c64 0 70 -4 160 -114 107 -129
207 -330 207 -413 0 -108 -124 -229 -405 -393 -144 -85 -306 -201 -397 -286
-73 -69 -111 -97 -147 -109 -31 -10 -89 -48 -158 -103 -60 -48 -124 -98 -143
-112 -19 -13 -84 -63 -145 -110 -109 -87 -179 -130 -210 -130 -13 0 -15 -9
-11 -47 2 -27 0 -87 -4 -136 -10 -104 -41 -167 -135 -274 -83 -94 -213 -221
-255 -249 -45 -29 -135 -44 -277 -44 -117 0 -170 12 -223 52 -14 11 -76 74
-139 141 -98 105 -120 136 -163 224 -74 151 -74 151 -23 311 58 183 59 187
110 258 57 80 134 147 212 185 55 28 75 32 203 40 78 5 165 9 194 10 48 2 55
5 72 33 57 98 481 565 804 886 69 69 137 140 150 157 14 18 78 78 142 134 64
55 135 126 157 157 22 32 54 76 71 100 33 46 41 50 61 26z m5343 -7508 c111
-22 283 -87 300 -115 11 -18 -9 -50 -82 -131 -110 -120 -189 -152 -377 -153
-93 0 -108 2 -166 30 -68 32 -191 138 -221 191 -21 36 -18 40 68 78 125 56
307 112 366 113 20 1 70 -6 112 -13z m1941 -313 c-10 -88 -26 -166 -39 -184
-28 -40 -146 -131 -191 -148 -27 -10 -117 -29 -199 -41 -131 -20 -157 -21
-215 -10 -36 6 -109 17 -161 23 l-94 12 -29 43 c-16 23 -46 52 -68 65 -25 14
-46 37 -59 62 -17 37 -50 173 -50 210 0 23 27 18 86 -16 51 -29 163 -56 370
-89 76 -12 194 -1 387 36 117 22 146 32 185 60 26 18 55 33 65 33 17 1 18 -5
12 -56z m-2525 -90 c42 -72 75 -110 104 -119 12 -3 67 -29 123 -56 182 -88
292 -86 506 7 97 43 114 54 165 111 31 35 63 64 70 64 15 0 15 0 -4 -73 -19
-76 -56 -149 -102 -207 -87 -108 -160 -152 -297 -177 -81 -15 -95 -15 -183 1
-206 36 -362 135 -362 228 0 15 -20 75 -45 132 -25 58 -45 117 -45 132 0 43
31 25 70 -43z"/>
<path d="M18735 15258 c-10 -50 -54 -186 -80 -249 -24 -57 -105 -339 -105
-365 0 -12 9 -14 48 -9 86 12 297 56 305 65 5 4 -3 70 -16 146 -14 77 -28 159
-32 184 -13 93 -29 145 -63 202 -19 32 -38 58 -42 58 -5 0 -11 -15 -15 -32z"/>
</g>
</svg>
